<?xml version="1.0" encoding="utf-8"?>
<!-- Generator: Adobe Illustrator 23.0.3, SVG Export Plug-In . SVG Version: 6.00 Build 0)  -->
<svg version="1.1" id="Objects" xmlns="http://www.w3.org/2000/svg" xmlns:xlink="http://www.w3.org/1999/xlink" x="0px" y="0px"
	 viewBox="0 0 584.6 493.2" style="enable-background:new 0 0 584.6 493.2;" xml:space="preserve">
<style type="text/css">
	.st0{opacity:0.16;}
	.st1{fill:#211915;}
	.st2{opacity:0.26;}
	.st3{fill:#FFCF64;}
	.st4{fill:#FFFFFF;}
	.st5{fill:#9B9B9B;}
</style>
<g>
	<g class="st0">
		
			<image style="overflow:visible;" width="2208" height="2055" xlink:href="B97248C1.png"  transform="matrix(0.24 0 0 0.24 26.16 0)">
		</image>
	</g>
	<path class="st1" d="M470.9,31.2H211.8v6.4h259.1c20.8,0,37.7,17.8,37.7,39.7v263.1c0,21.9-16.9,39.7-37.7,39.7h-28.4v6.4h28.4
		c24.3,0,44.1-20.7,44.1-46.1V77.3C515,51.9,495.3,31.2,470.9,31.2z"/>
	<g class="st2">
		
			<image style="overflow:visible;" width="2436" height="1521" xlink:href="B97248C3.png"  transform="matrix(0.24 0 0 0.24 0 35.76)">
		</image>
	</g>
	<rect x="30.6" y="62.9" class="st3" width="511.3" height="295.2"/>
	<path class="st1" d="M362.7,380.1H215.3L140.8,439v-58.9h-39.3c-20.8,0-37.7-17.8-37.7-39.7V77.3c0-21.9,16.9-39.7,37.7-39.7H132
		v-6.4h-30.6c-24.3,0-44.1,20.7-44.1,46.1v263.1c0,25.4,19.8,46.1,44.1,46.1h32.9v65.7l83.1-65.7h145.3V380.1z"/>
</g>
<g>
	<g>
		<path d="M157,53.4h8.1v22.3h-22.5V55.6l11.9-24.5H165L157,53.4z M191,53.4h8.1v22.3h-22.5V55.6l11.9-24.5h10.6L191,53.4z"/>
	</g>
	<g>
		<path d="M417.1,364.1H409v-22.3h22.5V362l-11.9,24.5H409L417.1,364.1z M383.1,364.1H375v-22.3h22.5V362l-11.9,24.5H375
			L383.1,364.1z"/>
	</g>
</g>
<rect x="368.3" y="71.8" transform="matrix(0.9954 -9.553181e-02 9.553181e-02 0.9954 -12.57 43.6464)" class="st4" width="162.5" height="162.5"/>
<path class="st5" d="M464.1,110.5l-3.6-28.1l-1.9,0.2l3.6,28.1c0.4,2.9-1.7,5.6-4.6,6c-2.9,0.4-5.6-1.7-6-4.6l-6.2-48.8
	c-0.5-4,1.9-7.8,5.3-8.3l0.2,0c3.4-0.4,6.6,2.6,7.2,6.7l0,0.3h2l-0.1-0.5c-0.7-5.2-4.8-8.9-9.3-8.4l-0.2,0c-4.5,0.6-7.7,5.3-7,10.4
	l6.2,48.8c0.5,4,4.2,6.8,8.2,6.3C461.8,118.1,464.6,114.5,464.1,110.5z"/>
</svg>
