<?xml version="1.0" encoding="utf-8"?>
<!-- Generator: Adobe Illustrator 23.0.3, SVG Export Plug-In . SVG Version: 6.00 Build 0)  -->
<svg version="1.1" id="Layer_1" xmlns="http://www.w3.org/2000/svg" xmlns:xlink="http://www.w3.org/1999/xlink" x="0px" y="0px"
	 viewBox="0 0 388.4 145.7" style="enable-background:new 0 0 388.4 145.7;" xml:space="preserve">
<style type="text/css">
	.st0{fill:#FFFFFF;}
	.st1{fill:#84C25E;}
</style>
<g>
	<path class="st0" d="M316.3,15.6c20.8-3.4,46.8,19.1,54.1,45.4c1.7,6.3,7.2,30.2-8.6,50.3c-16.3,20.7-41.7,20.4-45.1,20.3
		c-4.7-0.1-21.1-0.7-31.2-10.9C260.8,95.6,282.3,21.1,316.3,15.6z"/>
	<path class="st0" d="M95.1,19c-11-5.9-26.7-1.4-37.9,1.9C45.6,24.2,32.7,28,24.9,39.7c-7.7,11.6-5.8,24.5-3.4,41.3
		c2.9,20.1,5.3,36.5,19.1,46.9c12.8,9.6,32.3,11.8,46.2,4.9C122.9,114.6,122.6,33.7,95.1,19z"/>
	<g>
		<path class="st1" d="M269.8,0h54.7c9.6,0,18.3,1.5,26.2,4.6s14.6,7.6,20.2,13.6c5.5,6,9.8,13.6,12.9,22.7c3,9.1,4.6,19.7,4.6,31.7
			s-1.5,22.6-4.6,31.7s-7.4,16.6-12.9,22.7c-5.6,6-12.3,10.6-20.2,13.6c-7.9,3.1-16.6,4.6-26.2,4.6h-54.7V0z M324.5,117.2
			c9.4,0,16.9-2.6,22.3-7.9s8.1-13.7,8.1-25.4V61.4c0-11.7-2.7-20.1-8.1-25.4s-12.8-7.9-22.3-7.9h-23.1v89.1H324.5z"/>
	</g>
	<g>
		<path d="M118.6,145.3H63.9c-9.6,0-18.3-1.5-26.2-4.6s-14.6-7.6-20.2-13.6c-5.5-6-9.8-13.6-12.9-22.7C1.5,95.3,0,84.7,0,72.7
			S1.5,50,4.6,41c3.1-9.1,7.4-16.7,12.9-22.7c5.6-6,12.3-10.6,20.2-13.6c7.9-3.1,16.7-4.6,26.2-4.6h54.7
			C118.6,0.1,118.6,145.3,118.6,145.3z M63.8,28.1c-9.4,0-16.9,2.6-22.3,7.9s-8.1,13.7-8.1,25.4v22.5c0,11.7,2.7,20.1,8.1,25.4
			s12.8,7.9,22.3,7.9h23.1V28.1H63.8z"/>
	</g>
	<path class="st0" d="M329.5,92.4c0.1-0.9,0.2-1.9,0.5-2.9c-0.7-1.9-0.6-4-0.5-6c0-1.2,0-2.5,0.3-3.7c-0.2-0.3-0.3-0.6-0.4-1
		c-0.1-0.8-0.1-1.6-0.1-2.4v-1.3c0,0,0-0.1,0-0.3c-0.1-0.6,0-1.1,0.2-1.6c-0.1-0.3-0.2-0.7-0.2-1.1c0-1.6-0.3-3.8-0.1-5.8
		c-0.9-2.6-1.1-6-0.8-8.4c-0.6-1-0.7-2.3-0.6-3.4c-0.7-1.1-1.1-2.2-1.2-3.3v-0.7c-1.4-2.3-2.6-5.8-2.6-8.7c-1.4-2.3-2.9-5.6-3.4-8.4
		c-1.1-0.9-1.7-2.4-2-3.9c-0.9-0.3-1.3-1.1-1.5-1.9c-0.4-0.2-0.9-0.4-1.5-0.6c-3.8-1.7-6.5-1.1-10.4-0.1c-6.1,1.6-12,0.6-17.8,3.5
		c-0.1,0.1-0.2,0.1-0.3,0.1c-0.3,0.5-0.7,0.8-1.3,1.1c-0.2,0-0.4,0.1-0.6,0.2c-1.2,1.3-2.3,2.6-3.6,3.7c-0.2,0.3-0.5,0.6-0.7,0.9
		c0.2,1.4-0.8,3.1-2.6,3.1c-0.9,0-1.5-0.4-1.8-0.9c-0.4,0.1-0.9,0.2-1.4,0.2c-3.5,0.5-7.7,1.4-11.2,0.6h-0.1
		c-0.2,0.1-0.5,0.2-0.8,0.2c-4.5,0.3-7.4-1.5-10.8-4.4c-5.1-4.2-10.9-7-17.6-7.8c-0.3,0-0.6-0.1-0.9-0.2c-0.3,0.1-0.7,0.2-1,0.2
		c-9.7-0.4-19.1-2.9-28.5-5c-2.4-0.5-5.5-0.1-8.2-0.5c-0.3,0.1-0.6,0.2-1,0.3c-3.4,0.3-10.4,3.1-13.4,0.1c-0.8,0.2-1.6,0.3-2.4,0.4
		h-0.4c-1.3,0.3-2.6,0.6-4,0.7h-0.6c-0.2,0.1-0.5,0.3-0.8,0.3c-3.7,0.8-7.4,1.4-11.2,2c-3.3,0.6-7,2.2-10.3,2.3
		c-0.4,0-0.8,0-1.2-0.1c-0.3,0.7-1,1.2-2,1.2c-4.3,0.2-9.2,3.3-12.9,5.4c-0.6,0.3-1.2,0.4-1.7,0.3c-0.4,0.4-0.8,0.8-1.5,1
		c-6.6,1.9-13.3,4.1-20.2,4.2c-0.4,0.3-0.9,0.4-1.5,0.4c-2.3,0-2.9-2.3-2.1-3.9c0,0,0-0.1-0.1-0.1c-2.2-6.5-7.6-5.2-12.9-6.5
		c-0.2-0.1-0.5-0.1-0.7-0.2c-0.5,0.4-1.2,0.7-2.1,0.5c-3.1-0.6-6-1.3-9-2.2c-2.9-0.8-6-1.6-8.8-0.3c-0.2,0.1-0.4,0.1-0.6,0.2
		c-1.3,1.6-2.9,2.9-4.1,4.8c0,0.9-0.4,1.9-1.3,2.5c-0.4,1.1-0.9,2.1-1.5,3.1c0.1,0.9-0.2,1.9-1,2.5c0,0.8-0.3,1.7-1,2.3
		c0.2,0.9-0.1,1.9-0.8,2.6c-0.4,1.8-0.7,3.5-1.3,5.2c0,0.1-0.1,0.1-0.1,0.2c0,0.3,0,0.6-0.1,1c-0.2,0.8-0.5,1.6-0.8,2.3
		c0.7,1,0.4,2.6-0.6,3.5c-0.4,2.3,0.2,5.4-1.2,7.4c0,0.4,0,0.9-0.2,1.4c-0.1,0.1-0.1,0.2-0.2,0.4c-0.2,4.4-0.6,8.8-0.8,13.2
		c0.5,0.6,0.6,1.4,0.4,2.2c0.1,0.6,0.1,1.2-0.2,1.8c0,0.1,0,0.3,0,0.4c0.1,3.9,0.6,7.9,0.2,11.8c0.4,0.6,0.5,1.4,0.3,2.1
		c0.3,0.5,0.6,1,0.6,1.7c0,2,0,4,0.2,6c0.1,1.5-0.1,3.2,0.3,4.6c0,0.1,0.1,0.3,0.1,0.4c0.4,0.6,0.5,1.5,0.2,2.3
		c0,0.1,0.1,0.2,0.1,0.3c0.3,1.4,0.5,2.9,1,4.3c0.1,0.3,0.1,0.4,0.1,0.5c0,0,0.1,0,0.2,0.1c0.3,0.3,0.8,0.4,1.1,0.7
		c0.7,0.5,1.6,1.8,2.1,2c0.2,0.1,2.5,0.6,3.1,0.4s1.1-0.2,1.6-0.1c0.5-0.5,1.2-0.9,2.2-0.8c0.3,0,1.9-0.3,2.6-0.3h2.7
		c1.9,0.1,3.5,0.5,4.9,1.9c0.2,0.2,0.3,0.3,0.4,0.5c0.5,0,1.1,0.1,1.7,0.4c1.1,0.7,2.7,0.5,4,0.6s2.8,0.5,4-0.1
		c0.7-0.3,1.4-0.4,1.9-0.2c0.2-0.6,0.7-1.1,1.5-1.4c1.2-0.4,2.3-2,2.7-3.1c0.3-0.9,0.4-1.6,0.6-2.6c0.1-0.4,0.2-0.9,0.3-1.3
		c0.1-0.3,0.1-0.5,0.2-0.5c-1.4-2.7,2.5-5.6,4.7-3.1l0.1,0.1c0.3-0.1,0.6-0.1,1-0.1c1.5,0.1,3-0.1,4.5-0.1c1.2,0,2.8,0.1,3.9-0.4
		h0.1c0.3-0.2,0.6-0.4,0.9-0.5c0.4-0.3,0.9-0.4,1.4-0.4c2.1,0,2.6,2.1,1.8,3.6c0.3,0.6,0.3,1.4,0,2.1c0.1,0.3,0.2,0.6,0.3,1
		c0.1,1.4,2.6,2.5,3.9,2.9c1.9,0.7,4.2,0.7,6.2,0.9c0.1,0,0.3,0.1,0.4,0.1c0.5-0.6,1.2-1,2.2-1c1.7,0,2.5,1.3,2.4,2.7
		c0.6,0.5,0.8,1.3,0.6,2.1c0.4,0.5,0.5,1.3,0.4,2c0.7,0.4,1.1,1.2,1.1,2c0.4,0.5,0.6,1.1,0.6,1.8c1,0.2,1.5,0.8,1.7,1.6
		c0.5,0.3,0.8,0.7,1,1.2c1.3,0.4,2.7,0.4,4,0.7l0.1-0.1c0.4-0.9,1.2-1.7,2.4-1.7c1.6,0,2.3,1.2,2.2,2.5c0.4,0.3,0.6,0.8,0.7,1.3
		c0.3,0.3,0.4,0.6,0.5,1c1,0.3,1.5,1.3,1.4,2.3c1.7,1.2,3.9,1.7,5.7,2.3c0.3,0.1,0.5,0.3,0.7,0.4c0.8-0.5,1.7-0.9,2-1.4
		c0.5-1,1.4-1.4,2.2-1.3c0.2-0.1,0.5-0.1,0.8-0.1c1.3,0,2,0.8,2.1,1.7c0.1,0,0.1,0.1,0.2,0.1c0.5,0.3,1,0.4,1.6,0.3
		c0.3,0,0.5,0,0.8,0.1c0.4,0,0.7-0.1,1.1-0.1c1.7-0.3,3.2-0.9,4.8-1.6c2-0.9,3.9-2,5.9-3c0.4-0.6,1-1,1.7-1.1
		c0.3-0.1,0.7-0.2,1.1-0.2c1.2,0,1.9,0.7,2.1,1.6c0.8,0.5,1.5,1,2.1,1.6c0.9,0.1,1.5,0.7,1.7,1.4c1.3,0.6,2.5,1.6,3.7,2.2
		c1.7,0.9,4.9,3,6.8,2.8c0.5,0,1,0.1,1.4,0.3c2-0.8,4.1-1.3,5.4-2.5c0.7-0.6,1.7-1.2,2.6-0.8c1.9,0.8,3.2,2.1,5.3,2.5
		c0.8,0.2,1.4,0.6,1.8,1.1h0.7c0.7-0.8,1.9-1.1,3.1-0.8c-0.9-0.2-0.1-0.2,0.4-0.5c0.4-0.2,0.8-0.5,1.2-0.7c0.2-0.1,0.5-0.3,0.7-0.4
		c0.1-0.1,0.2-0.1,0.2-0.2c0.1,0,0.1,0,0.1,0s0-0.1,0.1-0.3c0.1-0.3,0.2-0.5,0.4-0.7c0.2-1.3,1.2-2.6,2.9-2.6c1.3,0,2.1,0.7,2.3,1.7
		h0.5c1.8,0.2,3.7,0.3,5.6,0.3c0.2-0.2,0.5-0.5,0.8-0.6c1.6-0.9,2.9-2,4.3-2.5c0.5-0.9,1.1-1.8,1.4-2.9c0.3-1.1,1.7-2,2.9-1.8
		s2.3,0.2,3.5,0.2c1.2-0.4,2.3-0.8,3.5-1.2c0.5-0.2,1-0.3,1.5-0.5c0,0,0.3-0.1,0.5-0.2c0.2-0.3,0.4-0.6,0.6-0.8
		c0.6-1.1,1.4-2.1,2.4-2.9c0.4-0.3,0.7-0.6,1-0.9c0.2-0.2,0.3-0.4,0.5-0.6c0-0.1,0.2-0.5,0.1-0.2c0-0.1,0.1-0.2,0.2-0.3
		c0-0.5,0.1-1.1,0.4-1.6c-0.2-0.7-0.1-1.5,0.4-2.2c0.8-1.2,2.8-1.7,3.9-0.7l0.4,0.4c0.3-0.2,0.7-0.3,1.1-0.3
		c1.1-0.1,2.4-0.3,3.6-0.6c0.3-0.4,0.6-0.8,1.2-1c1.1-0.5,2.2-0.9,3.3-1.4c1-0.6,1.8-1.4,2.9-1.8c0.9-1.4,2.8-2.1,4.1-3.3
		c1.6-1.3,2.8-3.3,4.5-4.5c0.7-0.5,2.6-0.8,3.1-1.3c1.1-1.2,2.4-1,3.4-0.1c1.5,0.6,1.7,2.5,1,3.9c0.2,0.3,0.4,0.6,0.5,1
		c1.3,4.5,4.3,9.3,9.6,8.9c1-0.1,2-0.3,3-0.3c0.3-0.4,0.8-0.6,1.3-0.8c3.3-1,6.1-3,9.9-2.5c2.8,0.3,5.4,1.5,8.2,1.8
		c1.2,0.1,2.4,0.1,3.5,0.2c0.9-1.2,1.6-2.3,2-3.9c0.6-2.4,1.3-4.8,1.3-7.2c0-0.6,0.2-1.1,0.5-1.5c-0.8-2.5-0.1-5.6,0.3-8.3
		c0-0.2,0.1-0.4,0.2-0.6C329.2,96.4,329.4,94.4,329.5,92.4z"/>
	<g>
		<path d="M330.4,84.4c0-11.1-0.5-22.3-3-33.1c-1-4.5-2.7-8.7-4.1-13c-1.1-3.2-2.2-6.5-4.1-9.2c-1.8-2.5-3.9-4.1-6.7-4.3
			c-2.2-0.2-4.5,0.4-6.6,1.2c-2.7,1-4.9,1.6-7.7,1.8c-0.6-0.1-1.2-0.2-1.7-0.3c-7-0.8-12.8,4.6-17.4,10.4c-2.9,0.5-5.8,0.8-8.8,0.8
			c-2.4,0-4.9,0-7.3-0.1c-1.7,0-3.7,0.2-5.4-0.2c-1-1-2.1-2.1-3.1-3c-2.8-2.5-6.3-4.6-9.6-6.1c-7.1-3.2-15-2.7-22.5-3.7
			c-4.5-0.6-8.7-2-13.1-2.9c-3.9-0.9-7.7-2-11.7-1.6c-2.3,0.2-4.7,0.5-7,1c-6.6-0.9-13.7,0.2-20.1,1.5c-7.6,1.6-15.3,2.5-22.8,4.8
			c-7.4,2.3-14.1,7.2-21.7,8.7c-4.1,0.8-8.5,1.9-12.7,2.2c-0.7,0.1-1.3,0.1-2,0.1h-0.1c-0.5,0-1,0.1-1.5,0.1
			c0.2-7.6-4.8-10.9-11-10.5c-0.8,0.1-1.6,0.2-2.4,0.3c-0.8-0.2-1.5-0.2-2.4-0.1c-2.4,0.2-4.5-0.2-6.7-1.1
			c-3.4-1.3-7.6-3.4-11.1-1.7c-2.8,1.4-4.9,5-6.5,7.9c-2.3,4.1-4,8.5-5.3,13.1c-3,10.4-4.5,21.8-4.7,32.7
			c-0.1,5.8,0.2,11.6,0.6,17.4c0.1,1.5,0.3,3,0.4,4.6c0,1.9,0.2,3.9,0.5,5.7c0.6,3.3,0.1,6.8,1.5,9.9c1.1,2.3,3.1,4,5.1,4.9
			c1,0.4,2,0,2.9-0.4c2.1-1,4.1-1.6,6.4-1.5c3,0.1,6.2,2.3,9.1,3.3c2.6,0.9,5.3,1.3,8.1,0.8c5.3-1,8-7.2,8-13
			c2.8,0.3,5.6,0.6,8.4,0.6c2.8-0.1,5.8-0.4,8.8-0.6c-1.1,1.8-1,4.9,0.3,6.4c3.4,3.9,9.8,4.1,14.2,2.4c0.9,3.1,1.8,6.4,3.1,9.2
			c2.3,5.3,6.7,4.8,10.9,3.3c0.7,2.1,1.4,4.1,2.9,5.7c1.4,1.6,3.8,2.6,5.6,3.3c2.5,1,4.4-1.4,6.5-2.5c0.5,0.6,1.1,1.1,1.7,1.5
			c6,3.4,12.6-3.6,18-5.4c2.2,2.1,4.4,4,6.9,5.7c5.6,3.7,12.8,6.7,18,0.6c1.7,1.5,3.5,2.7,5.6,3.3c4.7,1.2,8.8-1.2,11.1-5.8
			c0,0.1,0.1,0.1,0.1,0.2c0.2,0.1,0.3,0.3,0.5,0.4l0,0c0.1,0.1,0.2,0.2,0.3,0.2c4.5,3.1,10.7,1.3,14.3-2.9c1-1.1,1.7-2.3,1.8-3.6
			c4.4,1.6,8.8,0.1,12.3-3c2.5-2.2,3.8-4.9,4-8c1.8-0.4,3.6-0.2,5.4-0.6c2-0.5,4-1.2,5.9-2.1c3.9-2,7.8-5.1,11.2-8
			c0.9-0.7,1.6-1.7,2.2-2.7c2.3-1,4.8-1.2,7.2-1.2c-0.1,4.7,1.9,9.4,5,12.3c4.1,3.7,8.2,1.5,12.4-0.5c3-1.5,6.9-1.7,10.1-0.7
			c2.6,0.9,4.9,1.9,7.6,1.7c2.3-0.2,3.4-2.7,4-5.5c0.4-1,0.5-2.1,0.6-3.2c0.2-3.3,0.9-6.6,1.2-9.9C330.7,96.5,330.4,90.3,330.4,84.4
			z M90.4,123.4c-4.8-0.3-8.9-3.6-13.6-4.3c-2-0.3-4,0.4-5.9,1.1c-2.3,0.9-3.4,1-5.3-0.9c-1.1-1.1-2-2.5-2.5-4.1
			c-0.7-2.1-0.5-4.7-0.9-7c-0.5-7.7-1.2-15.3-1.4-23c-0.3-10.5,1-20.7,3.1-30.8c1.7-8.7,4.8-18,10.2-24.3c3.5-4.1,8.4-1.8,12.5-0.2
			c1.2,0.5,2.4,0.8,3.7,1c-2.4,1.8-5.2,0.3-7.9-0.2c-1.7-0.3-3.8-1.4-5.4-0.4c-2,1.2-3,3.2-4,5.5c-1.1,2.6-2.8,5.3-3.3,8.2
			c-0.1,0.4,0.4,0.6,0.5,0.3c0.9-2.3,2.7-4.4,3.8-6.6c0.7-1.4,1.3-2.7,2.2-3.9c0.3-0.4,0.5-0.7,0.8-0.9c-1.6,2.6-2.4,6.4-3.6,9
			c-1.4,3.3-3.5,7.3-3.3,11.1c0,0.2,0.3,0.3,0.4,0.1c0.6-3.3,2.4-6.5,4-9.2c0.9-1.5,1.8-3,2.6-4.5c0.3-0.5,0.6-1.1,0.9-1.7
			c-0.1,0.4-0.2,0.8-0.3,1.2c-1,3.4-3.1,7.6-3,11.4c0,0.2,0.3,0.3,0.3,0.1c0.6-2.9,2.3-5.7,3.5-8.3c0.7-1.6,1.4-3.9,2.4-5.6
			c-0.8,2.3-0.9,5-1.7,7.3c-0.1,0.2,0.2,0.5,0.3,0.3c1.2-1.7,1.9-3.7,2.8-5.5c0.4-0.7,0.9-1.4,1.5-1.9c0.6,0.1,1.1,0.2,1.7,0.2
			s1-0.2,1.2,0.6c0.1,0.7,0,1.6-0.2,2.3c-0.6,1.3-1.2,2.5-1.8,3.7c-0.2,0.3,0.2,0.7,0.5,0.4C88.9,40,90,33,95.2,31.5
			c2.5-0.8,5.5-0.8,8.1,0c3.6,1.1,4.6,4.5,5,8.2c-1,0.1-2.1,0.1-3.1,0.3h-0.1c-0.7,0-1.3,0.1-1.8,0.3c-0.2,0-0.4,0.1-0.6,0.1
			s-0.3,0.2-0.4,0.4c-1.1,0.7-1.9,1.8-2.6,3.5C98,48.2,97.1,52.8,96,57c-2.7,10.2-3.3,20.4-4.1,31c-0.4,5.1-0.9,10.2-1.1,15.4
			c-0.1,3.8-0.3,7.4,1.2,10.9c0.8,1.8,2.3,3.7,4.1,2.8c1.4-0.7,1.8-3.6,2-5.4c0.8,0.1,1.5,0.1,2.3,0.2
			C100.3,118.8,96.6,123.7,90.4,123.4z M128.5,119c0.5,0.3,1.2,0.5,1.8,0.6c-1.8,0.2-3.6,0.2-5.5-0.2c-1.2-0.2-2.3-0.7-3.3-1.4
			c-1.7-1.1-2.4-4.5-0.8-6.1c0.1,0,0.2,0,0.4,0c-0.2,0.3-0.4,0.6-0.4,0.9c0,0.2,0.1,0.4,0.3,0.3c0.7-0.4,1.2-0.8,2-0.9
			c0.2,0,0.5,0,0.7,0c-0.6,0.3-1.1,0.8-1.6,1.3c-0.1,0.1,0,0.4,0.2,0.3c0.9-0.7,1.9-0.8,2.9-0.8c0.3,0,0.6,0.1,0.9,0.1
			c-1.1,0.4-2.2,1-3.1,2.1c-0.1,0.1,0,0.4,0.2,0.3c0.9-0.7,1.8-1.1,2.9-1.2c0.6,0,1.1,0.1,1.7,0.2c-1,0.3-2,0.7-2.8,1.4
			c-0.2,0.2,0,0.5,0.2,0.4c1.4-0.8,2.9-0.6,4.3-0.4c0.1,0.1,0.2,0.2,0.2,0.3c-1,0.1-2,0.1-2.9,0.6c-0.3,0.1-0.1,0.6,0.2,0.5
			c1.1-0.3,2.2,0.2,3.3,0.2c0.1,0.3,0.2,0.5,0.3,0.8c-0.6,0-1.2,0.1-1.8-0.1C128.4,118.1,128.1,118.8,128.5,119z M112.4,110.6
			c-3.7,0.2-7.3,0.1-11-0.3c-2.1-0.2-4.2-0.6-6.3-0.4c-0.3-0.1-0.6-0.4-0.8-0.8c-0.1-0.2-0.2-0.5-0.4-0.7c2,0.1,4,0,6,0.3
			c3.4,0.4,6.9,0.4,10.4,0.5c6.8,0.3,13.5-1.4,20.2,0.8c0.1,0,0.1,0,0.2,0c0,0.5,0,1.1,0,1.6c0,0.1,0,0.1,0,0.2
			C125.6,108.8,117.8,110.3,112.4,110.6z M134.9,120.1c-0.2-0.7-0.4-1.4-0.6-2.1c-0.6-2.3-2.2-5.4-2.1-7.8c0.8,1.1,2.6,1.4,3.8,0.7
			c2-1.1,2.2,3.1,2.6,4.4c0.2,0.9,0.4,1.8,0.5,2.7C139.4,120.8,136.7,121.2,134.9,120.1C135,120.1,134.9,120.1,134.9,120.1z
			 M142.9,133c-2.5,0.3-4.5-2-5.3-4.4c-0.8-2.3-1.6-4.6-2.3-6.9c1.2,0.6,2.7,0.7,3.8-0.5c1.3-1.4,1.1-3.3,0.7-5.1
			c-0.2-1.1-0.6-2.1-0.8-3.1c-0.3-1.1-0.3-2.2-0.9-3.1c-0.3-0.5-0.6-0.6-1-0.7c-0.4-0.3-0.9-0.3-1.4-0.2c-0.4,0.1-0.8,0.2-1.3,0.2
			c-0.5,0.1-0.8-0.3-1.3-0.6c-0.1-0.1-0.2,0-0.2,0.1c0,0.6,0.2,0.9,0.5,1.2c-0.4-0.1-0.8-0.4-1.1-1.1c0.3-0.9,0.9-1.6,2-2.2
			c3.1-1.5,6.1,1,7.7,3.9c-1.3,1.5-1.1,3.6-0.5,5.8c-0.2-0.2-0.4-0.4-0.5-0.6s-0.4,0-0.3,0.2c0.5,1.8,1.3,3.4,2.1,5.1
			c-0.4-0.5-0.8-0.9-1.2-1.4c-0.3-0.3-0.7,0.1-0.5,0.4c0.8,1.3,1.6,2.6,2.2,4c0.3,0.7,0.6,1.4,0.8,2.1c-1.2-1.1-2.2-2.3-3.1-3.8
			c-0.2-0.4-0.8-0.2-0.7,0.3c0.5,1.6,1.3,3,2.1,4.4c0.2,0.3,0.4,0.6,0.6,1c-0.2-0.1-0.4-0.2-0.5-0.3c-1.3-0.7-2.4-2.4-3.1-3.8
			c-0.1-0.2-0.4-0.1-0.4,0.2c0.6,2,1.6,4.1,2.9,5.6c-0.5-0.1-0.9-0.4-1.4-0.8c-1.3-1.4-2-3.6-3-5.3c-0.1-0.1-0.3-0.1-0.2,0.1
			c0.6,2.1,1,4.6,2.3,6.3c1.4,1.9,3.3,2.1,5.2,2.4C144.3,132.8,143.6,132.9,142.9,133z M146.2,125.1c-0.6-1.6-1.2-3.2-1.8-4.8
			c-0.7-1.7-1.9-3.9-2-5.9c0.2,0.1,0.4,0.2,0.6,0.3c1.7,0.7,3.1,0.3,4.4-0.6c0.5,0.1,0.9,0.2,1,0.5c0.2,0.5,0.5,1.5,0.9,2.6
			c0.1,0.7,0.3,1.4,0.4,2c0.3,1.4,1.1,3.6,0.2,4.9C149.1,125.2,147.3,125.5,146.2,125.1C146.3,125.1,146.2,125.1,146.2,125.1z
			 M158.2,140.8c-1.7,0.8-4.2-1.2-5.6-2.1c-3-1.8-4.3-6.8-5.4-10.9c0-0.1,0-0.2-0.1-0.3c-0.1-0.4-0.2-0.8-0.3-1.2
			c1.3,0.3,3.1-0.3,4-1.5c2.1-1.5,0.6-5.8-0.1-8c-0.5-1.5-0.8-3.3-1.7-4.6c-1.4-1.9-3.9,2.4-5.4,0c-0.1-0.1-0.2-0.1-0.3,0
			c-0.1,0.5,0,0.9,0.3,1.1c-0.4-0.1-0.8-0.2-1.1-0.5c0.2-0.9,0.8-1.8,1.9-2.3c2-1,4.8-0.9,6.8,0.3c1.3,0.8,2.2,2.2,3.3,3.3
			c-0.3,0.8-0.4,1.7-0.3,2.9c0.1,0.8,0.4,1.6,0.7,2.4c-0.2-0.1-0.4-0.2-0.6-0.3c-0.2,0-0.3,0.2-0.2,0.3c0.8,1,1.4,2.1,1.8,3.4
			c-0.4-0.5-0.9-0.8-1.5-0.8c-0.2,0-0.4,0.4-0.2,0.6c0.8,0.9,1.4,1.8,1.9,2.9c0.3,0.6,0.5,1.3,0.7,1.9c-0.6-0.6-1.2-1.2-1.8-1.7
			c-0.2-0.2-0.5,0.1-0.4,0.4c0.3,1.1,1.2,2.1,1.8,3c0.4,0.5,0.7,1,1,1.6c-0.8-0.6-1.5-1.2-2.3-1.9c-0.2-0.2-0.7,0.1-0.5,0.4
			c0.7,1.2,1.6,2.3,2.3,3.4c0.1,0.1,0.1,0.2,0.2,0.3l0,0c-1.4-0.6-2.4-1.9-3.2-3.3c-0.1-0.2-0.4-0.1-0.4,0.2
			c0.3,1.7,1.2,3.1,2.2,4.4c0.1,0.1,0.1,0.1,0.2,0.2c-1.8-1.1-3.4-2.7-4.4-4.9c-0.1-0.3-0.5,0-0.4,0.3c0.6,1.5,1.2,3.1,2.1,4.5
			c-2-1.5-3.9-3.8-4.2-5.9c0-0.3-0.4-0.2-0.4,0.1c0,0.6,0,1.1,0.2,1.7v0.1c0.1,0.2,0.1,0.3,0.2,0.5c0,0.1,0.1,0.3,0.1,0.4
			c0.8,2.4,2,5.3,3.7,6.6c2.4,1.9,4.8,1,7.4,0.9c0.1,0,0.2,0,0.3-0.1c0,0.1,0.1,0.1,0.1,0.2C159.9,139.8,159.1,140.4,158.2,140.8z
			 M155.5,117.4c0.5,0.4,1.2,0.6,1.9,0.8c1.3,0.2,2.2-0.2,3.2-0.9c0.2,0,0.5,0.1,0.7,0.2c0.7,1.8,1.2,3.7,1.8,5.5
			c0.5,1.6,0.8,3.5-0.6,4.6c-0.9,0.7-2.2,1-3.2,0.4h-0.1c-0.6-1.8-1.2-3.7-1.9-5.5C157,121.2,155.9,119.2,155.5,117.4z M174.5,138.3
			c-2.1,1.2-4.6,2-6.9,2.1c-3.5,0.2-4.8-2.5-6-5.9c-0.6-1.6-1.2-3.2-1.7-4.8c1.2,0.3,2.6-0.1,3.6-1c1-0.6,1.7-1.3,2-2.6
			c0.4-1.9-0.7-4.1-1.4-5.7c-0.7-1.8-0.8-3.9-2.5-4.8c-0.5-0.3-1-0.1-1.5,0.1c-1.3,0.4-2.5,0.4-3.8-0.1c-0.2-0.1-0.3,0.2-0.2,0.3
			c0.6,0.6,1.1,1,1.8,1.4c-0.9,0.2-1.8,0-2.5-0.7c0-1.1,0.4-2.1,1.7-2.7c1.8-0.8,4.1-0.3,5.9,0.2c2.8,0.9,4,4.1,5.3,6.9
			c1,2.2,1.8,4.6,2.7,6.9c0.1,0.9,0.3,1.7,0.5,2.6c0.1,0.3,0.1,0.7,0.2,1c-0.4-0.4-0.7-0.8-1-1.2c-0.1-0.2-0.5,0-0.4,0.3
			c0.2,0.7,0.6,1.4,1,2c-0.7-0.4-1.4-0.9-2.1-1.7c-0.3-0.4-0.7,0.1-0.5,0.5c0.5,1.1,1.2,2.1,2,3c-1.4-0.1-3.2-1.6-3.5-2.9
			c-0.1-0.3-0.5-0.3-0.5,0.1c0,1.4,1,2.6,1.9,3.5c-0.4-0.1-0.7-0.3-1.1-0.5c-1.2-0.6-2.3-1.4-3-2.7c-0.1-0.2-0.4-0.1-0.3,0.2
			c0.3,1.4,1.3,3,2.2,4.1c-1.3-0.5-2.3-1.9-3.2-3.1c-0.2-0.3-0.6,0.1-0.4,0.4c0.4,0.9,0.9,1.8,1.4,2.7c0.8,1.8,1.8,3.6,3.9,3.2
			c1.8-0.3,3.5-0.7,5.2-1.3c1.2-0.4,3.5-2.1,5-1.7C176.9,136.8,175.7,137.6,174.5,138.3z M253.7,128.5c-3,3.6-7.3,5.2-11.5,4.3
			c0.1-0.2,0.2-0.5,0.2-0.8c0.1-1-0.5-0.5,1-0.6c0.6,0,1.3,0,1.9-0.1c1.6-0.2,3-0.8,4.4-1.6c2.6-1.4,3.9-4.1,4.4-7.2
			c0.1-0.4-0.4-0.7-0.6-0.3c-0.9,1.8-1.8,3.2-3.4,4.3c-1.7,1.1-3.8,1.5-5.8,1.5l-0.1-0.1c-0.6-0.3-1.2-0.7-1.8-1.1
			c3.4,0.3,7.1-1.4,8.8-4.3c0.2-0.4-0.2-0.9-0.5-0.6c-1.8,1.5-4.7,2-7.4,1.5c2.2-0.6,4.3-1.8,5.4-3.2c0.3-0.4-0.1-0.9-0.5-0.7
			c-2,1-3.8,0.8-5.9,0.7c1.7-0.7,3.3-2,4.6-3.6c0.4-0.5-0.1-1.1-0.5-0.8c-2.1,1.1-4.3,1.7-6.5,1.8c2.1-1.1,4.2-3,5.2-4.1
			c0.2-0.2,0-0.7-0.3-0.6c-1.4,0.6-2.9,1.1-4.4,1.6c-1.3,0.4-3.3,1.2-4.4,0.2c0.6,0,1.2-0.2,1.6-0.3c2.3-0.8,5.5-2.4,7.2-4.5
			c0.3-0.4-0.1-1.1-0.5-0.8c-1.4,1.1-3.4,1.3-5,1.7c-1.1,0.2-2.1,0.5-3.2,0.6c-0.1,0-0.1,0-0.2,0c0.6-0.2,1.2-0.5,1.8-0.8
			c1.7-0.9,3.9-2.3,4.9-4.1c0.2-0.3-0.1-0.6-0.4-0.5c-1.5,0.5-2.8,1.4-4.4,1.8c-1.5,0.4-2.9,0.4-4.4,0.3c0.4-0.2,0.7-0.4,1.1-0.6
			c2-1.2,3.8-2.4,5.2-4.6c0.2-0.3-0.2-0.7-0.4-0.5c-1.4,1-2.9,1.6-4.5,2c-0.5,0.1-1,0.3-1.6,0.4c0.6-0.4,1.2-0.8,1.7-1.3
			c0.7-0.5,1.3-1.1,1.9-1.8c0.7-0.7,1.1-1.8,1.7-2.5c0.1-0.1,0-0.3-0.2-0.3c-1.3,0.3-2.5,1.4-3.8,1.9c-0.8,0.3-1.7,0.5-2.6,0.8
			c0.5-0.5,1-1,1.5-1.4c1-0.8,1.9-1.8,2.4-3.1c0.1-0.4-0.3-0.6-0.6-0.4c-1.3,1.2-3,2-4.6,2.7c0.2-0.3,0.5-0.7,0.7-1
			c0.9-1.1,1.7-2.1,2.4-3.5c0.1-0.2-0.1-0.5-0.3-0.3c-0.9,0.9-2.1,1.4-3.2,2c-0.3,0.2-0.6,0.3-1,0.5c0.1-0.3,0.2-0.5,0.4-0.8
			c0.5-1.1,1.1-2.1,2-2.9c0.2-0.2,0-0.6-0.2-0.5c-0.9,0.4-1.7,1-2.5,1.6c-0.6,0.5-1.4,1-2,1.6c0-0.3-0.1-0.5-0.2-0.8
			c0.2-0.3,0.4-0.6,0.7-1c0.7-1,1.6-1.8,2.2-2.8c0.2-0.3-0.1-0.5-0.3-0.5c-0.8,0.1-1.5,0.7-2.2,1.1s-1.6,0.7-2.2,1.4
			c-0.3,0.3-0.4,0.6-0.6,0.9c-0.4-0.6-0.9-1.1-1.3-1.7c0.5-0.4,0.8-1,1.2-1.5s0.9-1,1.4-1.4c0.2-0.2,0.2-0.6-0.1-0.7
			c-0.7-0.2-1.3,0.2-1.9,0.6c-0.3,0.2-0.6,0.5-0.9,0.7s-0.6,0.4-0.9,0.7c-0.2-0.3-0.5-0.7-0.7-1c0.5-0.2,0.9-0.9,1.2-1.4
			c0.4-0.6,1-1,1.4-1.6c0.2-0.4,0-0.8-0.4-0.8c-0.6,0.1-1.1,0.7-1.6,1.1s-1.2,0.9-1.5,1.6c-0.2-0.3-0.5-0.6-0.7-1
			c0.4-0.3,0.7-0.7,0.9-1.1c0.4-0.5,0.7-1.2,1.1-1.6c0.2-0.2-0.1-0.5-0.3-0.3c-0.8,0.8-1.9,1.1-2.7,1.7c0,0-0.1,0-0.1,0.1
			c-0.2-0.2-0.4-0.4-0.5-0.6c0.3-0.3,0.6-0.6,0.8-1c0.4-0.5,0.8-1.1,1.1-1.7c0.2-0.3-0.2-0.8-0.5-0.5c-0.4,0.4-0.8,0.8-1.2,1.1
			c-0.4,0.4-0.9,0.7-1.3,1c-0.4-0.4-0.8-0.8-1.1-1.1c0.5-0.6,1-1.3,1.6-1.8c0.2-0.2,0-0.6-0.2-0.5c-0.8,0.5-1.6,0.8-2.4,1.4
			c-0.2-0.2-0.4-0.4-0.7-0.6c0,0,0,0,0-0.1c0.2-0.4,0.6-0.7,0.9-1.1c0.3-0.3,0.6-0.7,0.9-1.1c0.2-0.3-0.1-0.9-0.4-0.6
			c-0.7,0.6-1.5,1.2-2.3,1.7c-0.1,0-0.1,0.1-0.2,0.2c-0.2-0.2-0.4-0.3-0.6-0.5c-0.1-0.1-0.1-0.1-0.2-0.2c0,0,0,0,0.1,0
			c0.3-0.2,0.5-0.6,0.6-1c0.2-0.3,0.3-0.6,0.6-0.7c0.2-0.1,0.1-0.6-0.1-0.6c-0.4,0-0.7,0.2-1,0.5c-0.2,0.1-0.3,0.3-0.5,0.4
			c-0.2,0.2-0.3,0.3-0.4,0.5V80c-0.3-0.3-0.6-0.7-0.9-1.1c0.1,0,0.2-0.1,0.4-0.2c0.1-0.1,0.2-0.2,0.2-0.4c0,0.1,0-0.1,0.1-0.1
			c0.1-0.2,0.2-0.3,0.3-0.5c0.2-0.3,0.4-0.6,0.7-0.7c0.2-0.1,0.1-0.6-0.1-0.6c-0.4,0-0.7,0.2-1.1,0.5c-0.2,0.1-0.4,0.3-0.6,0.5
			c0,0-0.2,0.2-0.1,0.1c-0.2,0.1-0.2,0.3-0.3,0.5v0.1c-0.3-0.3-0.5-0.6-0.8-0.9c0,0,0,0,0.1-0.1c0.4-0.5,0.8-0.9,1.3-1.2
			c0.2-0.1,0.1-0.5-0.1-0.5c-0.6,0-1.1,0.3-1.7,0.6c-0.2,0.1-0.4,0.3-0.4,0.5c-0.1,0.1-0.2,0.3-0.1,0.4c2,2.4,3.6,4.9,5.7,7.2
			c2.5,2.6,4.8,5.3,6.9,8.3c1.9,2.7,4.5,5.1,6.1,8c1.7,3.2,2.8,7.2,4.1,10.6c2.5,6.7,5.2,13.3,7.6,20c0.7,1.8,1.1,3-0.1,4.7
			c-0.9,1.3-2.1,2.2-3.4,3c-2.7,1.7-6.1,2.2-8.9,0.8c0-0.1,0-0.2,0-0.2c1.1,0.1,2.3-0.2,3.3-0.4c2.9-0.5,7.8-1.3,8.4-5.6
			c0-0.3-0.3-0.6-0.4-0.3c-1.6,2.3-4.1,2.4-6.5,2.7c1.8-0.9,3.4-2.2,4.2-3.6c0.2-0.4-0.2-0.7-0.5-0.5c-2.5,1.4-6.2,2.1-9.2,1.4
			c0.5-0.1,0.9-0.2,1.3-0.2c1.8-0.3,6-1.4,6.1-4.3c0-0.2-0.2-0.3-0.3-0.2c-1.9,1.3-4,0.9-6.1,0.9c-0.2,0-0.4,0-0.6,0
			c2-1,3.8-2.5,4.7-4c0.2-0.3-0.2-0.6-0.4-0.5c-1.9,1.1-3.8,1.3-5.9,1.5c-1,0.1-2.1,0.3-3,0.1c2.8-0.1,5.1-1.9,7.1-4.3
			c0.3-0.3-0.1-0.8-0.4-0.6c-2,1.1-4.1,1.3-6.3,1.3c-0.3,0-0.8,0-1.3,0c2-0.5,4.1-2.1,5.3-3.9c0.2-0.3-0.1-0.8-0.4-0.6
			c-1.8,1.1-4.4,1.5-6.7,1c1.9-0.9,3-2.8,4.6-4c0.3-0.2,0.1-0.8-0.2-0.7c-1.3,0.5-2.5,0.9-3.8,1.3c-0.7,0.2-1.4,0.4-2.2,0.4
			c-0.2,0-0.3,0-0.5,0c0.1,0,0.2-0.1,0.4-0.1c2.2-0.9,3.9-2.9,5.2-5.1c0.2-0.3-0.2-0.7-0.4-0.5c-1.6,1.1-3.2,1.4-5,2
			c-0.8,0.2-1.6,0.4-2.4,0.5c2.5-1.3,5.4-3.3,6.6-5.9c0.2-0.4-0.2-0.8-0.5-0.6c-1.4,1-2.6,1.8-4.3,2.2c-0.5,0.1-0.9,0.2-1.4,0.3
			c0.1-0.1,0.2-0.2,0.3-0.3c1.4-1.5,3.2-3.2,3.8-5.3c0.1-0.2-0.2-0.4-0.3-0.3c-2,1.8-4.4,3.3-6.8,4.3c0.3-0.3,0.6-0.7,0.8-1.1
			c0.9-1.5,1.9-3,2.7-4.6c0.2-0.4-0.2-0.6-0.5-0.4c-0.9,0.9-1.8,1.9-2.8,2.6c-0.9,0.6-1.8,0.9-2.7,1.3c0-0.1,0-0.2,0-0.2
			c0.5-0.7,0.9-1.6,1.4-2.3c0.7-1,1.4-2.1,1.9-3.2c0.1-0.3-0.1-0.6-0.3-0.5c-0.9,0.3-1.5,1.4-2.3,2c-1.1,0.7-2.1,1.6-3.2,2.2
			c-0.1,0-0.1,0.1-0.2,0.1c0-0.1,0-0.1,0-0.2c0.2-0.3,0.5-0.6,0.7-1c0.9-1.3,1.9-2.6,2.2-4.2c0-0.2-0.2-0.3-0.3-0.2
			c-0.8,0.8-1.6,1.6-2.5,2.4c-0.6,0.5-1.2,0.7-1.8,1.1l-0.1,0.1c0.1-0.2,0.1-0.3,0.2-0.5c0.2-0.5,0.5-0.9,0.8-1.4
			c0.6-1.1,1.4-2.1,1.9-3.2c0.2-0.3-0.2-0.7-0.4-0.5c-1,0.8-1.9,1.8-3,2.4c-0.3,0.2-0.6,0.3-0.8,0.5c0.2-0.3,0.3-0.6,0.5-0.9
			c0.4-1,0.8-2,1.3-2.9c0.2-0.3-0.2-0.6-0.4-0.4c-0.6,0.6-1.2,1.2-1.9,1.7c-0.6,0.5-1.3,0.7-2,1V97c0,0,0-0.1,0-0.2
			c0-0.3,0.1-0.5,0-0.7l0,0c0.1-0.2,0.2-0.4,0.3-0.6c0.2-0.4,0.5-0.7,0.8-1c0.4-0.4,0.7-0.9,1.1-1.3c0.1-0.1,0-0.3-0.1-0.3
			c-0.9,0-1.8,0.7-2.6,1.1c-0.3,0.1-0.5,0.3-0.8,0.4c-0.1,0-0.1,0.1-0.2,0.1c-0.2,0-0.4,0.1-0.5,0.2c-0.1,0-0.1,0.1-0.2,0.1
			c0.2-0.5,0.3-1.2,0.5-1.7c0.2-0.4,0.4-0.7,0.6-1c0.2-0.3,0.5-0.6,0.6-0.9s0-0.6-0.3-0.6c-0.7,0-1.4,0.8-2,1.3s-1.4,1.1-1.7,1.9
			c-0.2-0.2-0.4-0.4-0.7-0.6c0.9-0.8,0.9-2.5,1.6-3.4c0.2-0.3-0.2-0.5-0.4-0.3c-0.8,0.8-1.8,1.6-2.4,2.7c-0.4-0.4-0.8-0.7-1.3-1
			c0.3-0.5,0.6-0.9,1-1.3c0.4-0.5,0.8-0.9,1.2-1.4c0.2-0.2,0-0.7-0.3-0.6c-1.1,0.5-2.2,1.5-2.9,2.5c-0.4-0.3-0.8-0.6-1.2-1
			c0.3-0.3,0.5-0.7,0.7-1c0.3-0.5,0.6-1,1-1.4c0.3-0.3-0.1-0.7-0.4-0.6c-0.4,0.2-0.8,0.6-1.2,0.9c-0.4,0.4-0.9,0.8-1.2,1.3l0,0
			c-0.5-0.4-0.9-0.8-1.3-1.2c0.2-0.3,0.4-0.5,0.6-0.9c0.1-0.2,0.2-0.3,0.3-0.5c0.1-0.1,0.2-0.2,0.3-0.4c0.1-0.1,0-0.3-0.1-0.3
			c-0.3-0.1-0.8,0.1-1.1,0.3c-0.2,0.1-0.4,0.2-0.6,0.4c-0.1,0.2-0.2,0.3-0.3,0.5l-0.1-0.1c-0.2-0.2-0.4,0.1-0.3,0.3
			c0.1,0.1,0.2,0.2,0.3,0.3c0,0.1,0,0.3,0.1,0.4s0.2,0.1,0.3,0.2c1.4,1.6,2.9,3,4.5,4.4c1.9,1.7,3.6,3.8,5.4,5.7
			c4,4.3,7.8,8.5,11.1,13.6c3,4.7,4.9,10.2,7.2,15.4c1.8,4.2,4.4,8.2,7,11.8c-0.8,1-1.3,2.1-2.1,3.1c-0.9,1.1-2.5,1.7-3.6,2.1
			c-2.8,1.1-6.1-0.1-8.5-1.8c-0.5-0.4-1.1-0.9-1.6-1.4c0-0.2,0-0.4-0.1-0.6c1,0.6,2.1,1.2,3.2,1.6c2.3,0.9,8.1,2,8.8-2.2
			c0.1-0.3-0.3-0.6-0.5-0.2c-1,2-4,1.3-6.5,0.3c1.8,0,3.7-0.6,5.4-2.1c0.3-0.2,0.1-0.8-0.2-0.7c-3,1-5.6,0.2-8.2-0.9
			c1.6-0.3,3-1,4-1.9c0.2-0.2,0.1-0.6-0.2-0.5c-1.9,0.6-4.1,0.5-6.1,0c1.6-0.3,3.1-1,4.2-2.6c0.2-0.3,0-0.7-0.3-0.6
			c-2,0.7-3.5,0.7-5.6,0.4h-0.1c1.3-0.7,2.4-1.7,3.2-2.7c0.2-0.3,0-0.7-0.3-0.6c-1.4,0.4-2.7,1-4.2,1.3c-0.9,0.1-1.8,0.1-2.6,0
			c0.1,0,0.3-0.1,0.4-0.1c1.8-0.6,3.2-1.9,4.2-3.7c0.2-0.3-0.2-0.6-0.4-0.5c-1.7,1.2-3.7,2.1-5.7,2c0.3-0.2,0.6-0.4,0.9-0.6
			c1.1-0.9,2.6-2.2,3.1-3.7c0.1-0.2,0-0.4-0.2-0.3c-1.1,0.4-2.1,1.3-3.3,1.8c-0.5,0.2-1,0.3-1.5,0.5c1.5-1,2.7-2.7,3.7-4.2
			c0.2-0.3-0.2-0.7-0.4-0.5c-1.3,1.1-2.6,2.1-4.2,2.5c-0.5,0.1-1,0.2-1.5,0.2c0.1-0.1,0.2-0.1,0.3-0.2c1.3-0.8,2.7-2.2,3.6-3.5
			c0.2-0.3-0.1-0.8-0.4-0.6c-0.9,0.7-1.9,1.2-2.9,1.7c-0.6,0.3-1.3,0.5-1.9,0.6c-0.3,0-0.6,0-0.8-0.1c0.4-0.3,0.9-0.6,1.3-1
			c1.1-0.9,2.3-2.2,2.9-3.6c0.1-0.2-0.1-0.6-0.3-0.5c-1,0.5-1.9,1.4-3,1.8c-0.5,0.2-1,0.3-1.5,0.4c1.2-1.4,2-3.7,2.6-5.2
			c0.1-0.3-0.2-0.6-0.4-0.4c-0.7,0.8-1.5,1.7-2.3,2.4c-0.5,0.5-1.1,0.8-1.7,1c1.2-1.6,2-3.8,2.6-5.6c0.1-0.2-0.2-0.4-0.3-0.3
			c-0.8,0.7-1.4,1.6-2.2,2.4c-0.9,1-1.9,1.5-3,2c0,0-0.1,0-0.1,0.1l0,0c0.5-0.7,0.9-1.5,1.4-2.4c0.3-0.6,0.6-1.2,0.9-1.9
			c0.3-0.6,0.4-1.6,0.8-2.1c0.1-0.2,0.1-0.5-0.2-0.5c-0.9,0.1-1.3,1.2-1.9,2c-0.5,0.7-1.1,1.3-1.7,1.8c-0.2,0.2-0.5,0.3-0.8,0.5
			c0.3-0.5,0.6-1.1,0.9-1.7c0.3-0.7,0.6-1.4,0.9-2.1c0.3-0.7,0.7-1.3,0.9-2c0.1-0.2-0.2-0.5-0.4-0.4c-1,0.5-1.6,1.7-2.3,2.5
			c-0.4,0.4-0.8,0.8-1.1,1.1c0.2-0.4,0.3-0.8,0.5-1.3c0.3-0.8,0.6-1.6,0.7-2.4c0.1-0.6-0.1-1.3,0.1-1.8l0,0c-0.7-0.3-0.9,1-1.1,1.5
			c-0.7,1.7-2.5,2.9-3.9,3.8v-0.1c1.6-1.9,2.5-4.7,2.9-7.2c0.1-0.4-0.4-0.7-0.6-0.3c-0.8,1.9-2.1,3.3-3.4,4.4c1-2.1,1.4-4.8,1.5-7
			c0-0.3-0.4-0.5-0.6-0.2c-0.5,1.4-1,2.8-1.9,4c-0.6,0.9-1.5,1.6-2.3,2.3c0.3-0.5,0.6-1,0.8-1.6c0.6-1.8,0.7-3.8,0.8-5.7
			c0-0.3-0.3-0.5-0.5-0.3c-1.1,1.3-1.8,3.1-2.9,4.5c-0.5,0.6-1,1.2-1.3,1.8c-0.2-0.2-0.4-0.3-0.6-0.5c-0.2-0.1-0.3-0.2-0.4-0.2
			c0,0,0.1,0,0.2-0.1c1.4-1.6,1.8-4.1,2.2-6.2c0.1-0.3-0.3-0.6-0.5-0.3c-0.9,1.4-1.6,3-2.9,3.9c-1,0.7-1.9,1.3-1.8,2.8
			c0,0.2,0,0.4,0.1,0.6c0,0.1,0,0.1,0,0.2l0,0c0.4,1.1,1.4,1.8,2.2,2.4c0.3,0.2,0.7,0.4,1.1,0.6c1.1,0.9,2.3,1.7,3.5,2.6
			c2.7,2.2,5.4,4.6,8,6.8c3,2.5,4.7,5.6,6.9,8.8c2.3,3.4,4.7,6.7,7.1,10c1.8,2.6,3.8,5.5,6,7.8c-3.2,2.4-5.8,3.4-9.7,2.2
			c-3.1-1-6.1-2.9-8.8-4.9c-2.8-2-5.2-4.5-7.8-6.8c-2.3-2-4.8-3.8-7.2-5.7c-0.5-1-1.4-2-1.8-3.1c0-0.1,0-0.2,0-0.3
			c1.3,1,2.6,1.9,3.9,3c2.3,2.1,4.6,3.8,7.1,5.5c3.3,2.2,6.4,5.3,9.8,7.5c2.6,2.1,5.6,3.8,8.2,2.1c0.3-0.2,0.1-0.6-0.2-0.7
			c-1.4-0.2-2.6-0.9-3.8-1.6c0.3-0.2,0.7-0.4,1-0.8c0.1-0.2,0-0.5-0.2-0.5c-1.2,0.1-2.3-0.3-3.4-0.8c0.6-0.3,1.2-0.8,1.6-1.5
			c0.1-0.2-0.1-0.5-0.3-0.4c-1,0.3-2.1,0.3-3.1,0.1c-0.4-0.1-0.7-0.2-1-0.4c0.9-0.3,1.8-0.9,2.5-1.7c0.3-0.3,0-0.9-0.4-0.8
			c-1.3,0.4-2.7,0.7-4,0.4c-0.3-0.1-0.6-0.2-0.9-0.4c1-0.4,1.9-1,2.7-1.9c0.2-0.2-0.1-0.6-0.3-0.5c-1.3,0.8-2.8,0.7-4.3,0.3
			c1.5-0.7,2.8-1.6,3.5-2.5c0.2-0.3,0-0.9-0.3-0.7c-1.9,0.9-4,1.3-6,0.7c1-0.4,1.9-1.1,2.7-2c0.4-0.5-0.1-1.2-0.6-0.9
			c-1.7,1-3.6,1-5.3,0.5c1.3-0.6,2.4-1.4,3-2.5c0.2-0.3-0.2-0.7-0.4-0.5c-1.2,0.9-2.6,1-4,0.7c-0.5-0.1-0.9-0.3-1.4-0.6
			c0.9-0.5,1.8-1.2,2.7-2c0.3-0.2,0-0.8-0.3-0.6c-1.8,0.7-3.6,0.8-5.5,0.6c1.4-1,2.6-2.4,3.6-3.4c0.2-0.2,0-0.6-0.2-0.5
			c-1.2,0.4-2.4,1-3.6,1.3c-0.8,0.2-1.4,0.2-2,0.2c1.7-0.8,2.7-2.8,3.7-4.4c0.2-0.4-0.2-0.9-0.5-0.6c-1.3,1.1-3.1,2.2-4.8,2.1
			c1.2-0.8,2.3-2.1,2.9-3.6c0.1-0.3-0.2-0.8-0.4-0.5c-1.7,1.5-3.4,1.8-5.3,1.6c1-0.7,1.9-1.6,2.5-2.6c0.1-0.2-0.1-0.5-0.3-0.4
			c-0.9,0.6-1.9,1.1-2.9,1.4c-0.3,0.1-0.6,0.1-1,0.2c0.8-0.8,1.5-1.8,1.5-2.8c0-0.1-0.1-0.2-0.1-0.2c-0.9,0-1.7,1-2.4,1.5
			c-0.8,0.6-1.9,0.9-3,0.9c0.8-1.1,1.5-2.1,2.1-3.3c0.1-0.2-0.1-0.5-0.3-0.4c-1,0.6-1.8,1.4-2.7,2.1c-0.4,0.3-0.9,0.6-1.4,0.9
			c0.2-0.6,0.4-1.3,0.7-1.9c0.3-0.7,0.8-1.3,1.1-2c0.1-0.2,0-0.5-0.2-0.5c-1.2-0.4-2.2,1.5-3,2.4c-0.5,0.6-1.1,1.1-1.6,1.5
			c0.7-1.6,1.3-3.1,1.7-4.7c0.1-0.3-0.3-0.5-0.5-0.3c-1.5,1.5-3.1,2.9-4.5,4.5c0.2-1.1,0.3-2.1,0.8-3.2s1.1-2.3,1.8-3.3
			c0.1-0.2-0.1-0.5-0.3-0.3c-1,0.7-1.9,1.6-2.7,2.6c-0.6,0.7-1.3,1.3-2,2.1c0.4-2.2,0.9-4.2,1.9-6.3c0.1-0.2-0.1-0.4-0.3-0.3
			c-1.2,1.4-2.3,2.8-3.2,4.4c-0.2,0.3-1.1,1.9-1,1.9c-0.2,0.1-0.4,0.2-0.6,0.2c0.1-0.4,0.3-0.9,0.4-1.3c1-3,1.7-5.9,3.1-8.8
			c0.1-0.3-0.1-0.6-0.4-0.4c-1.7,1.3-2.7,3.5-3.8,5.5c-0.5,0.9-1.1,1.8-1.6,2.7c0.7-3.4,1.4-6.7,2.6-9.9c0.1-0.4-0.2-0.8-0.5-0.4
			c-1.4,1.8-2.4,3.7-3.3,5.9c-0.5,1.3-1.2,2.6-1.8,4c0-0.3,0-0.6,0.1-0.8c0.2-3.9,1.5-7.2,3.1-10.6c0.1-0.3-0.2-0.6-0.4-0.3
			c-1.6,2.3-3.3,4.3-4.6,7c-0.4,0.8-0.7,1.7-0.9,2.6c-0.1,0.5-0.2,0.9-0.3,1.4c0,0.1,0,0.1,0,0.2c0.2-1.1,0.2-2.3,0.2-3.4
			c0.1-3.2,1.6-6.2,2.3-9.2c0.1-0.3-0.3-0.5-0.4-0.2c-1.1,2-2.3,4-3.3,6.2c-0.8,1.8-1.1,4.1-2,5.9c0.8-4.4,1.6-8.7,2.9-12.9
			c0.1-0.2-0.2-0.4-0.4-0.2c-2.3,2.7-3.6,6.4-4.7,10.1c0-0.7,0-1.5,0-2.3c-0.2-3.4,0.7-6.2,1.1-9.5c0-0.3-0.4-0.4-0.5-0.2
			c-1,2.6-2,5.3-2.8,8.1c-0.2,0.9-0.4,1.8-0.5,2.7c0-0.3-0.1-0.6-0.1-1c-0.3-3.5,0.3-7.1,0.7-10.6c0-0.3-0.3-0.5-0.4-0.2
			c-2,4.3-2.6,8.9-2.8,13.6c-0.2-1.5-0.3-3.1-0.3-4.6c0-3.4-0.1-7.4,0.6-10.7c0-0.2-0.2-0.3-0.3-0.1c-1.8,2.9-2.2,7-2.7,10.5
			c-0.3,2-0.4,4.1-0.3,6.1c-1.1-6-0.7-11.7,0-17.9c0-0.3-0.4-0.6-0.5-0.3c-2.5,5.9-3.5,13.1-2.7,19.8h-0.1c-0.1-0.7-0.2-1.4-0.3-2.1
			c-0.3-2.3-0.9-4.5-1.1-6.9c-0.2-4,0.4-7.7,0.8-11.6c0-0.3-0.4-0.5-0.5-0.2c-1.7,4-2.3,8.6-2.6,13c-0.2,2.3,0.3,4.6,0.5,7
			c0,0.2,0,0.3,0,0.4c-1.9-6.1-1.2-14.1-1-20.3c0-0.5-0.5-0.5-0.6-0.1c-1.3,4-1.7,9.1-2.1,13.5c0,0.6-0.1,1.2-0.1,1.9
			c-0.1-0.6-0.2-1.3-0.3-1.9c-0.6-4.4-1.2-8.5-0.5-12.9c0-0.3-0.3-0.5-0.4-0.2c-1.7,3.9-1.9,8.4-1.5,12.7c0.1,0.7,0.1,1.4,0.1,2.2
			c-0.2-0.9-0.4-1.8-0.5-2.7c-0.9-4.5-0.8-8.7-0.4-13.3c0-0.3-0.4-0.4-0.5-0.2c-1.7,4.6-1.6,10-1.3,14.9c0,0.3,0,0.6,0.1,0.9
			c-0.1-0.5-0.2-1-0.3-1.5c-0.8-4.2-1.7-9.7-0.9-14c0.1-0.3-0.3-0.5-0.4-0.2c-0.7,1.5-0.8,3-0.8,4.7c-0.1,2.9-0.3,5.8-0.3,8.7
			c0,0.4,0,0.9,0,1.3c-0.1-0.6-0.2-1.1-0.3-1.7c-1-4.5-1.3-8.7-1.2-13.4c0-0.4-0.4-0.4-0.5-0.1c-1.5,4.5-1.2,10.2-0.7,14.9
			c0,0.4,0.1,0.8,0.1,1.2c-0.4-1.2-0.7-2.4-1.1-3.6c-1.1-4.1-0.5-8.5-0.9-12.7c0-0.3-0.4-0.4-0.4-0.1c-0.6,3.6-1.3,8-1.1,12.3
			c-0.1-0.3-0.1-0.5-0.2-0.8c-1.3-4.9-1.1-10.3-0.9-15.4c0-0.4-0.4-0.4-0.5-0.1c-1.3,5.7-1.9,12.1-1,17.9c-0.4-1.9-0.6-3.8-0.7-6
			c-0.2-5.6-0.6-11,0.3-16.5c0.1-0.4-0.4-0.5-0.5-0.2c-1.9,5.6-2.1,11.8-2.4,17.8c0,0.2,0,0.4,0,0.6c-0.2-1.9-0.3-3.8-0.4-5.7
			c-0.1-4.3,0.2-8.7,0-13c0.6-4.6,1.4-9.2,2.7-13.7c0.6-2.2,1.2-4.3,1.8-6.4c0.1-0.1,0.2-0.2,0.2-0.3c0.7-2.3,2-5.3,3.8-7.3
			c1.2-0.4,2.4-0.5,3.6-0.7c1.4-0.3,3.1-0.6,4.5-1.4c0.6,0,1.2-0.1,1.7-0.1c4-0.2,8-1.4,11.9-2c7.5-1.2,13.9-5.5,21-8.2
			c7.3-2.8,15.1-3.4,22.7-5.1c3.8-0.8,7.5-1.6,11.4-1.9c-0.8,0.8-1.4,1.9-2.1,3.2c-1.4,2.9-2.7,5.8-4.3,8.6c-0.5,0.9-1,1.7-1.6,2.5
			c-3.5,3.9-7.2,7.4-11.6,9.9c-4.4,2.4-6.1,7.4-4.4,12.2c0.7,6.3,4.6,10.4,10.3,11.2c1.1,0.2,2.3,0.1,3.5-0.1
			c-0.7,0.5-1.3,1-1.9,1.5c-0.2,0.1,0,0.5,0.2,0.4c2.6-1.3,5.5-2.3,8-3.9c0.3-0.1,0.5-0.2,0.8-0.4c-1.3,1.6-2.7,3-4.2,4.5
			c-0.2,0.2,0,0.5,0.2,0.3c1.6-1.3,3.4-2.1,4.9-3.5c1.5-1.3,2.5-3.1,3.9-4.4c1.5-1.3,3.1-2.2,4.8-3c-1.6,1.1-3.2,2.5-4.2,4.1
			c-0.3,0.4,0.3,0.9,0.6,0.5c1.7-2.1,4.6-3.2,6.8-4.4c0.9-0.5,1.8-0.9,2.7-1.2c-1.3,0.9-2.4,2-3,3.5c-0.1,0.4,0.2,0.7,0.5,0.4
			c2.6-2.5,5.8-3.7,9-4.6c-1.7,1-3.3,2.3-4.7,3.5c-0.3,0.3,0.1,1,0.5,0.7c3.8-2.6,8.8-3.9,13.4-4.4c0.1,0,0.1,0,0.2,0
			c-2.3,1-4.4,2.3-6.6,3.6c-0.3,0.2-0.1,0.7,0.2,0.6c2.6-1,5-2.1,7.8-2.4c2-0.2,4.1-0.1,6.2-0.1c-2.2,0.7-4.3,1.7-6.4,2.8
			c-0.2,0.1-0.1,0.5,0.1,0.5c2.4-0.2,4.7-1,7.1-1.3c2-0.2,3.9,0.1,5.8,0.5c-2.1-0.1-3.7,0.8-5.6,1.7c-0.3,0.2-0.3,0.7,0.1,0.7
			c0.6,0.1,1,0,1.6-0.2c1.1-0.3,2.2-0.1,3.2,0.3c1.1,0.4,2.1,0.7,3,1.6c0,0.1,0,0.2,0.1,0.3c-1.8-0.9-3.8-1.1-5.4-0.1
			c-0.2,0.2-0.1,0.6,0.1,0.6c2.9-0.1,5.2,1.8,7,4.4c0.2,0.4,0.4,0.8,0.6,1.1c-1.1-0.7-2.1-1.4-3.4-1.9c-0.3-0.1-0.4,0.4-0.2,0.5
			c2.4,1.5,4.1,3.7,6.3,5.4c0.8,0.6,1.7,1.2,2.6,1.7c0.3,0.3,0.7,0.6,1,0.9c2.5,2.2,5.9,2.7,8.6,4.5c1.8,1.2,2.6,3,3.6,5
			c0.6,1.8,1.3,3.6,2,5.4c2.1,5.3,4.3,10.4,6,15.9C255.2,118.4,257.7,123.6,253.7,128.5z M178.4,43.4c1.3,2.1-0.2,5.3-1.4,6.9
			c-1.3,1.7-3,2.7-4.3,4.5c-0.6,0.9-1.1,1.8-1.8,2.7c0,0.1-0.1,0.1-0.1,0.1c-0.4,0.2-0.9,0.3-1.3,0.4c-0.8-0.1-1.5-0.7-2.1-1.1
			c-1.9-1.4-6.2-5.3-9.1-4.7c0.7-0.9,1.6-1.6,2.4-2.2c2.4-1.9,5.1-2.9,7.4-5c0.7-0.6,1.4-1.3,2-2C172.5,41.5,176.6,40.5,178.4,43.4z
			 M278.4,111.1c-2.9,2.6-6.3,5.2-9.6,7c-1.3,0.7-2.6,1.2-4,1.7c-1,0-2.1,0-3.1-0.2c-1.7-0.4-3-2-4.2-3.3c-0.9-1-1.7-2.2-2.3-3.5
			c-0.1-0.2-0.1-0.4-0.2-0.6c1.2,1.5,2.7,2.4,4.4,2.2c0.3,0,0.3-0.6,0-0.6c-1.8-0.5-2.9-2-3.7-3.8c1,0.8,2.1,1.3,3.3,1.7
			c1.4,0.4,2.8,1.2,4.3,0.7c0.1,0,0.2-0.3,0-0.3c-2.2-1.2-4.3-2.2-6.2-4c-0.7-0.7-1.3-1.5-1.9-2.3c3.3,3.4,7.9,5.1,12.3,3.8
			c0.1,0,0.1-0.3,0-0.3c-2.6-0.9-5-1.5-7.4-3.1c-1-0.7-1.9-1.4-2.7-2.3c4.1,2.8,9,3.9,13.4,1.8c0.2-0.1,0.2-0.4,0-0.4
			c-3.7-0.1-7-1.1-10-2.8c4.6,1.9,9.9,1.9,13.4-1.6c0.2-0.2-0.1-0.6-0.3-0.4c-4.3,2.4-8.9,1.3-12.9-1.1c0.9,0.3,1.7,0.5,2.7,0.6
			c4.2,0.8,8-0.1,11.4-3.1c0.1-0.1,0-0.2-0.1-0.2c-4.1,1-7.6,1.3-11.7,0.2c-0.3-0.1-0.5-0.1-0.8-0.2c0.2,0,0.4,0.1,0.7,0.1
			c3.2,0.3,7.2-0.6,10-2.6c0.2-0.2,0.1-0.5-0.2-0.5c-3,0.6-5.8,0.9-8.8,0.6c-1-0.1-2-0.4-2.9-0.8c3.7,0.4,7.3-0.1,10.9-2.2
			c0.2-0.1,0-0.4-0.1-0.3c-3,0.6-5.5,0.7-8.5,0.4c-0.8-0.1-1.6-0.2-2.4-0.3c0.5,0,1.1,0,1.6-0.1c2.7-0.2,6-0.5,8.3-2.1
			c0.2-0.1,0.1-0.5-0.1-0.5c-2.1,0.2-4.2,0.4-6.3,0.5c-9.4-0.6-18-2.1-26.2-8c-4-2.9-7.8-6.5-9.9-11.5c-0.4-1-0.9-2.7-1.6-4.2
			c0-0.2,0-0.3,0-0.5c0.1-0.8,0.4-1.4,0.7-2.1l0,0c0.6-0.4,1.1-0.8,1.5-1.5c0.9-1.3,1.3-3.4,1.6-5c0-0.3-0.2-0.4-0.4-0.2
			c-0.7,1.3-1,2.7-1.9,3.9c-0.7,0.9-1.8,1.4-2.8,1.8c-0.4,0.1-0.8,0.2-1.1,0.2c0,0-0.1-0.1-0.2-0.1c-2.4-1-4.8-1.5-7.3-2.4
			c-2.8-1-5.5-2.2-8.3-3.2c-1.1-0.4-2.3-0.7-3.4-1c-0.3-0.1-0.5-0.1-0.8-0.2h-0.1c-1.5-0.3-3-0.6-4.5-1c-0.9-0.2-1.7-0.6-2.4-0.8
			c0-0.1-0.1-0.2-0.1-0.3c-0.1-0.3,0-0.7-0.2-1c0.1-0.6,0.2-1.2,0.3-1.8c0.1-0.7,0.3-1.7-0.2-2.2c-0.1-0.1-0.1,0-0.2,0
			c-0.2,0.3-0.2,0.3-0.2,0.7c-0.1,0.7-0.3,1.4-0.5,2.1c-0.3,0.8-0.6,1.5-0.7,2.3c-6.1,2.2-11.1,7.4-16.5,11.2
			c-6.6,4.6-14.9,5.3-20.3-1.9c-1.3-1.8-2.1-4-2.2-6.3c0-0.7,0.2-1.4,0.4-2c1.6-1.4,4.5,0.5,6.9,2.4c-2-1.4-3.9-2.8-6.3-1.3
			c-0.2,0.2-0.1,0.6,0.2,0.5c2.6-0.7,4.7,2.2,6.8,3.4c1.4,0.8,3,1,4.5,1c3.3,0.1,5.6-4.4,7.3-7.1c0.9-0.9,1.8-2.1,2.4-3.4
			c-0.4,2-1.8,3.2-2.7,5c-0.1,0.1,0.1,0.3,0.2,0.2c2.8-2,4-4.2,4.1-8.1c0-2.6-0.8-4.4-2.4-5.4c-1.6-1.5-3.9-1.5-6-0.7
			c3.6-4.1,7-8.6,10.7-12.6c3-3.2,6.9-3.9,10.7-4.5c1.9-0.3,3.7-0.5,5.6-0.6c2.2-0.1,4.2,0.6,6.3,1.1c7.2,1.6,14.2,3.4,21.4,4.2
			c3.7,0.4,7.4,0.5,11.1,1.1c3.6,0.6,6.9,2.2,10.2,4.1c3.2,1.9,5.7,4.3,8.5,6.9c1.8,1.7,3.7,3,5.9,3.2c2.3,0.9,4.6,1.7,6.8,2.9
			c0.2,0.1,0.4-0.2,0.2-0.4c-2.9-2.3-6-3.8-9.1-5.3c2.8,0.5,5.9,0.2,8.6,0.2c4.4,0,8.8-0.4,13.1-1.4c0.4,0.1,0.7,0.2,1.1,0.3
			c0.9,0.2,2,0.5,2.9,0.9c1,1.5,1.8,3.3,2.4,4.5c0.9,1.8,2,3.5,2.9,5.3c0.7,2,1.3,4.1,1.8,6.2c1.5,6,2.1,12.6,2.6,18.9
			c0,5-0.3,9.9-1.1,14.8c-0.1,0.4-0.1,0.8-0.2,1.2c0.1-1.2,0.2-2.3,0.2-3.5c0.1-4.9-0.6-9.8-0.9-14.6c0-0.5-0.6-0.5-0.6,0
			c-0.2,4.5-0.1,8.9-0.5,13.4c-0.2,1.9-0.5,3.8-0.8,5.8c0-0.8,0-1.6,0.1-2.4c0.2-4.5,0.1-8.9-0.3-13.3c0-0.4-0.4-0.4-0.5,0
			c-0.6,6.3-1.3,12.6-2.2,18.8c-0.1-1-0.3-2-0.3-3c0-1.4,0.2-2.7,0.2-4.1c0.3-2,0.5-4.1,0.8-6.1c0.1-0.4-0.4-0.6-0.5-0.2
			c-0.5,2.1-1.1,4.2-1.6,6.3c-1.1,3.3-1.9,6.8-3.2,10.1C283,103,281.8,108.2,278.4,111.1z M283.5,107.7c0-0.2,0-0.3,0.1-0.5
			c1.2-1.6,4.1-1.9,5.5-2.1c1.9-0.3,3.8-0.4,5.8-0.5c0.1,0.6,0.3,1.2,0.5,1.7C291.3,106.5,287.3,106.1,283.5,107.7z M328.9,98.7
			c0,3.3-0.4,6.5-0.9,9.7c-0.2,1.1-0.2,2.5-0.3,3.8c-0.4,1.2-0.7,2.3-1.1,3.5c-1.3,4.1-4.2,3.8-7.2,2.8c-1.7-0.5-3.2-1.3-4.9-1.5
			c-2.2-0.3-4.6,0.2-6.8,0.7c-4.3,1.1-7.5,5-12,1.9c-3.3-2.2-5-7.1-5.7-11.3c0.8,0,1.5,0,2.3,0c0.2,2.4,1.2,5.6,3.1,6.7
			c1.6,1,2.9,0.7,3.5-1.4c0.3-1,0.2-2.3,0.2-3.4c0-2.7,0.3-5.3,0.2-8c-0.2-5.6-0.4-11.1-0.7-16.7c-0.6-10.5-1.4-21.7-4-31.8
			c-0.1-0.3-0.3-0.9-0.5-1.6c0-0.1,0-0.1-0.1-0.2v-0.1l0,0c-1.2-4-4-12-6.6-14.3c-0.7-1.2-2.1-2.2-3.2-1.6c-0.1,0.1-0.1,0.3,0,0.4
			c0.4,0.1,0.7,0.3,0.9,0.6c-0.8,0.2-1.6,0.3-2.3,0.5c-0.4,0-0.7,0.1-1.1,0.2c-0.1,0-0.2,0-0.2,0c1.2-1.1,2.4-2.5,3.5-3.6
			c2.7-2.8,5.8-4.2,9.4-4.6c2.6-0.3,6.8,0.8,8.2,3.5c1,1.8,1.9,3.6,2.5,5.7c0.6,2.1,0.6,4.3,1.3,6.3c0.1,0.4,0.7,0.3,0.6-0.2
			c-0.6-2.5-0.6-5.1-1.1-7.5c-0.5-2.1-1.6-4-2.5-5.8c-0.5-0.9-1.3-1.6-2.1-2.2c0.4,0,0.9,0,1.4-0.1c2.2-0.4,4.2-1.4,6.3-1.9
			c4.2-1,7.3,0.5,9.8,4.5c1.7,2.8,2.8,6.2,3.9,9.4c1.4,4,2.7,7.9,3.7,12c2.3,9.9,2.6,20.2,2.7,30.4C329,88.4,329,93.6,328.9,98.7z"
			/>
	</g>
</g>
</svg>
